<svg xmlns="http://www.w3.org/2000/svg" xmlns:xlink="http://www.w3.org/1999/xlink" version="1.1" class="iconomizer" >
<symbol id="agnsw" viewBox="0 0 516.25 516.25">
    <path class="agnsw" d="m 297.4 327.2 c 5 0.1 11.2 0.4 17.2 0.4 5.7 0 11.5 -0.3 17.2 -0.4 l 0 4 -2.4 0 c -3.2 0 -6.2 1.1 -6.2 5 0 1.4 0.8 3.7 1.7 6.7 l 19.7 59.6 0.3 0 22.3 -77 4.5 0 24 76.3 0.3 0 16.8 -53.6 c 0.9 -2.8 2.6 -8.4 2.6 -11.6 0 -4.2 -2.1 -5.4 -6.1 -5.4 l -3 0 0 -4 c 4 0.1 9.5 0.4 14.4 0.4 4.8 0 9.7 -0.3 14.3 -0.4 l 0 4 -2.4 0 c -5.2 0 -8.3 1.7 -10.6 9 l -26.4 82.8 -4.5 0 -24 -76.6 -0.3 0 -22.6 76.6 -4.5 0 -28.3 -82.4 c -2.6 -7.7 -6.6 -9.4 -11.4 -9.4 l -2.6 0 0 -4 m -23.9 24 -4.5 0 C 268.8 347 267.8 330.5 247.8 330.5 c -11 0 -18 7 -18 15.6 0 7.7 4 13.1 14.9 18.1 l 12.2 5.5 c 9.5 4.4 19.7 11.5 19.7 24.7 0 16.5 -10.8 28.5 -32.9 28.5 -2.1 0 -13.6 -0.1 -23.6 -3.3 L 219.6 398 l 4 0 c 1.1 12.2 11.2 20.5 22.4 20.5 11.4 0 21.1 -6.9 21.1 -18 0 -11.6 -9.1 -16.1 -16.5 -19.7 l -14.3 -6.7 c -10 -4.8 -17 -11.9 -17 -22.7 0 -13.6 11.6 -25.9 29.5 -25.9 8.3 0 16.5 2 24.7 3.6 l 0 22.2 m -186 66 2.1 0 c 7 0 8.2 -2.9 8.6 -16.8 0.5 -17.4 0.8 -42.5 0.8 -57.9 0 -9.5 -2.9 -11.5 -9.5 -11.5 l -3.7 0 0 -4 c 3.6 0.1 7.5 0.4 11.6 0.4 3.7 0 7.1 -0.3 10.4 -0.4 l 62.2 76.5 0.3 0 -0.8 -54.2 c -0.3 -15.2 -2.2 -18.4 -9.4 -18.4 l -1.6 0 0 -4 c 4.1 0.1 9.4 0.4 14.3 0.4 4.8 0 9.5 -0.3 14.3 -0.4 l 0 4 -2.1 0 c -4.1 0 -7.9 1.4 -8.3 14.3 l -2.4 77 -4 0 -65.5 -80.3 -0.3 0 c 0 20.5 0.3 40.8 0.8 61.3 0.3 10.8 2.4 13.9 8.6 13.9 l 2.6 0 0 4 c -4.4 -0.1 -9.6 -0.4 -14.5 -0.4 -5 0 -10.4 0.3 -14.5 0.4 l 0 -4 m 313.9 -126.3 1.8 0 c 3.7 0 4.5 -1.4 4.5 -5.4 l 0 -12 L 393.4 247.3 c -2.9 -5.3 -3.9 -6 -7.5 -6 l -0.7 0 0 -2.3 c 3.2 0.1 6.3 0.2 9.3 0.2 3.1 0 6.3 -0.1 9.4 -0.2 l 0 2.3 -1.3 0 c -1.6 0 -2.7 0.5 -2.7 2.4 0 1.1 0.9 3.1 1.6 4.5 l 11 20.4 10.2 -20.1 c 0.6 -1.1 2 -4 2 -5.4 0 -1.3 -0.9 -1.8 -2.9 -1.8 l -1.4 0 0 -2.3 c 3 0.1 5 0.2 7.3 0.2 2.5 0 5 -0.1 7.3 -0.2 l 0 2.3 -1.9 0 c -3 0 -3.7 1 -6 5.4 l -13.1 25.2 0 13.6 c 0 4.5 1.6 5.4 4.5 5.4 l 1.5 0 0 2.3 c -3.1 -0.1 -6.3 -0.2 -9.4 -0.2 -3.3 0 -6.7 0.1 -9.4 0.2 l 0 -2.3 m -48.2 -25.9 c 1.3 0.5 3.1 0.5 5 0.5 6.7 0 12.2 -3.1 12.2 -11.1 0 -3.4 -2.2 -12.7 -12.5 -12.7 -1.8 0 -3.2 0.1 -4.7 0.3 l 0 22.9 z m -12.7 25.9 1.3 0 c 3.4 0 4.9 -1.3 4.9 -6.2 l 0 -37.2 c 0 -5 -1.5 -6.2 -4.9 -6.2 l -1.3 0 0 -2.3 c 2.6 0.1 6.2 0.2 9.5 0.2 5 0 8.5 -0.2 11.8 -0.2 13.1 0 15.5 10.6 15.5 14.1 0 10 -6.8 13 -10.5 14.2 l 9.9 16.9 c 4.1 6.9 5.3 7.3 11.3 7.7 l 0 1.6 c -1.4 0 -2.7 0.1 -4.2 0.1 -6.5 0 -9.6 -0.8 -13.5 -7.5 l -8.7 -14.6 c -1.7 -2.8 -2.7 -3 -8.4 -3.1 l 0 14.4 c 0 7.2 1.3 8.1 4.2 8.1 l 2.1 0 0 2.3 c -3.3 -0.1 -6.4 -0.2 -9.6 -0.2 -3.3 0 -6.9 0.1 -9.5 0.2 l 0 -2.3 m -49.8 0 1.3 0 c 3.4 0 4.9 -1.3 4.9 -6.2 l 0 -37.2 c 0 -5 -1.5 -6.2 -4.9 -6.2 l -1.3 0 0 -2.3 c 2.4 0.1 10.8 0.2 18.2 0.2 8.7 0 12.2 -0.1 17.4 -0.2 0.1 4.7 0.3 8.8 0.7 12.9 l -2.1 0 C 324.1 246.6 323.6 241.9 310.4 241.9 l -7.1 0 0 21.6 6.5 0 c 9 0 9.3 -1.6 9.5 -6.1 l 2.1 0 c -0.1 1.8 -0.1 4.1 -0.1 7.5 0 3 0.1 5.4 0.1 6.9 l -2.1 0 c -0.4 -3.8 -0.5 -5.4 -8.8 -5.4 l -7.1 0 0 18.3 c 0 4.6 1.6 5.7 6.4 5.7 l 2 0 c 12.4 0 15.7 -2.4 16.9 -10.9 l 2.1 0 c -0.5 4.7 -1 9.2 -1.5 13.8 -4.5 -0.1 -12.4 -0.2 -20.4 -0.2 -9.2 0 -15.8 0.1 -18.2 0.2 l 0 -2.3 m -43.9 0 1.3 0 c 3.4 0 4.9 -1.3 4.9 -6.2 l 0 -37.2 c 0 -5 -1.5 -6.2 -4.9 -6.2 l -1.3 0 0 -2.3 c 2.6 0.1 6.2 0.2 9.5 0.2 3.3 0 6.4 -0.1 9.8 -0.2 l 0 2.3 -1.7 0 c -3.4 0 -4.9 1.3 -4.9 6.2 l 0 35.4 c 0 5.7 1.2 7.7 10.3 7.7 12.2 0 13.6 -2.2 14.9 -10.9 l 2.3 0 -0.5 13.5 c -6.5 -0.1 -14.9 -0.2 -21.4 -0.2 -8.7 0 -15.8 0.1 -18.4 0.2 l 0 -2.3 m -44.1 0 1.3 0 c 3.4 0 4.9 -1.3 4.9 -6.2 l 0 -37.2 c 0 -5 -1.5 -6.2 -4.9 -6.2 l -1.3 0 0 -2.3 c 2.6 0.1 6.2 0.2 9.5 0.2 3.3 0 6.4 -0.1 9.8 -0.2 l 0 2.3 -1.7 0 c -3.4 0 -4.9 1.3 -4.9 6.2 l 0 35.4 c 0 5.7 1.2 7.7 10.3 7.7 12.2 0 13.6 -2.2 14.9 -10.9 l 2.3 0 -0.4 13.5 c -6.5 -0.1 -14.9 -0.2 -21.4 -0.2 -8.7 0 -15.8 0.1 -18.4 0.2 l 0 -2.3 m -35.4 -43.7 -6.9 20.9 15.2 0 -8.3 -20.9 z m -24.8 43.7 0.9 0 c 4.1 0 5.7 -1.9 8 -8.2 l 17 -45.9 1.4 0 19 46.7 c 1.8 4.4 4.1 7.4 7.5 7.4 l 1.6 0 0 2.3 c -2.8 -0.1 -6.2 -0.2 -10.1 -0.2 -3.9 0 -7.5 0.1 -10.2 0.2 l 0 -2.3 1.9 0 c 2.4 0 3.8 -0.8 3.8 -2.4 0 -1.1 -0.7 -3.1 -1 -3.8 l -5.4 -13.7 -17.3 0 -3.9 12 c -0.5 1.5 -1.3 3.8 -1.3 5.5 0 1.4 0.7 2.4 3 2.4 l 1.6 0 0 2.3 c -2.6 -0.1 -5.6 -0.2 -9.1 -0.2 -2.8 0 -5.6 0.1 -7.3 0.2 l 0 -2.3 M 135 252.4 l -2.1 0 c -1.2 -8.2 -10.4 -11.2 -18.3 -11.2 -12.5 0 -22.2 8.5 -22.2 23.8 0 13.6 9.8 26.4 23.6 26.4 5.6 0 7.8 -0.9 12.7 -3.1 l 0 -12.7 c 0 -2.3 -0.5 -4 -4.3 -4 l -1 0 0 -2.3 c 2.5 0.1 5.5 0.2 8.5 0.2 2.8 0 5.7 -0.1 8.5 -0.2 l 0 2.3 -1.6 0 c -1.8 0 -3.5 0.7 -3.5 3.8 l 0 15.2 c -5.8 1.8 -12.7 3.7 -20.5 3.7 C 92.3 294.2 85 277.9 85 266.7 85 250.3 96.8 238 115.4 238 c 7.3 0 14.7 2.4 19.6 4 l 0 10.4 m 229.8 -54.3 3.6 0 c 8.5 0 10.1 -2 10.1 -15 l 0 -85.8 -17.9 0 c -16.9 0 -18.9 9.8 -19.8 22.1 l -5.3 0 0 -28.7 c 4.7 0.2 29.6 0.5 50.1 0.5 18.9 0 44.7 -0.3 50.1 -0.5 l 0 28.7 -5.3 0 c -0.9 -12.3 -3 -22.1 -19.8 -22.1 l -17.9 0 0 85.8 c 0 12.9 1.6 15 10.1 15 l 3.6 0 0 4.7 c -6 -0.2 -12.8 -0.5 -20.6 -0.5 -7.9 0 -14.7 0.3 -20.6 0.5 l 0 -4.7 m -112.3 -53.5 c 2.7 0.9 6.6 1.1 10.7 1.1 14.2 0 25.8 -6.5 25.8 -22.8 0 -6.9 -4.7 -26.1 -26.6 -26.1 -3.8 0 -6.8 0.3 -9.9 0.6 l 0 47.2 z M 225.4 198.1 l 2.8 0 c 7.2 0 10.4 -2.7 10.4 -12.9 l 0 -76.8 c 0 -10.2 -3.1 -12.9 -10.4 -12.9 l -2.8 0 0 -4.7 c 5.5 0.2 13.1 0.5 20.2 0.5 10.6 0 18.1 -0.5 25 -0.5 27.9 0 32.9 21.9 32.9 29.1 0 20.6 -14.5 26.9 -22.4 29.4 l 21.1 35 c 8.7 14.2 11.2 15.1 23.9 15.9 l 0 3.3 c -3 0 -5.8 0.2 -8.8 0.2 -13.9 0 -20.3 -1.7 -28.7 -15.4 l -18.4 -30.1 c -3.6 -5.8 -5.7 -6.1 -17.8 -6.5 l 0 29.8 c 0 15 2.7 16.7 9 16.7 l 4.6 0 0 4.7 c -6.9 -0.2 -13.6 -0.5 -20.5 -0.5 -7.1 0 -14.7 0.3 -20.2 0.5 l 0 -4.7 m -88.3 -90.4 -14.7 43.1 32.3 0 -17.6 -43.1 z m -52.8 90.4 1.9 0 c 8.7 0 12.1 -3.9 17 -17 l 36.1 -94.8 3 0 40.5 96.5 c 3.8 9.1 8.7 15.3 15.9 15.3 l 3.3 0 0 4.7 c -6 -0.3 -13.2 -0.5 -21.4 -0.5 -8.3 0 -15.9 0.2 -21.7 0.5 l 0 -4.7 3.9 0 c 5 0 8 -1.7 8 -5 0 -2.2 -1.6 -6.5 -2.2 -7.9 l -11.5 -28.4 -36.7 0 -8.3 24.9 c -1.1 3.1 -2.7 7.9 -2.7 11.3 0 2.8 1.6 5 6.5 5 l 3.5 0 0 4.7 c -5.5 -0.3 -12 -0.5 -19.4 -0.5 -6 0 -11.8 0.2 -15.6 0.5 l 0 -4.7 M 0 516.2 l 516.2 0 L 516.2 0 0 0 0 516.2 z"/>
</symbol>


   
<svg class="icon agnsw ">
  <use xlink:href="#agnsw" />
</svg>
</svg>
