<svg xmlns="http://www.w3.org/2000/svg" xmlns:xlink="http://www.w3.org/1999/xlink" version="1.1" class="iconomizer" >
<symbol id="instagram" viewBox="0 0 97 97">
<path class="instagram" clip-rule="evenodd" d="m 12.5 0 h 72.39 c 6.88 0 12.5 5.1 12.5 12.5 v 72.39 c 0 7.41 -5.62 12.5 -12.5 12.5 H 12.5 c -6.88 0 -12.5 -5.09 -12.5 -12.5 v -72.39 C 0 5.1 5.6 -0 12.5 0 l 0 0 z M 70.95 10.82 c -2.41 0 -4.38 1.97 -4.38 4.38 v 10.49 c 0 2.4 2 4.4 4.4 4.38 h 11.01 c 2.41 0 4.38 -1.97 4.38 -4.38 v -10.49 c 0 -2.41 -1.97 -4.38 -4.38 -4.38 H 70.95 l 0 0 z m 15.44 30.37 h -8.57 c 0.81 2.6 1.2 5.5 1.2 8.4 0 16.2 -13.55 29.33 -30.27 29.33 -16.72 0 -30.27 -13.13 -30.27 -29.33 0 -2.9 0.44 -5.71 1.25 -8.36 h -8.95 v 41.14 c 0 2.1 1.7 3.9 3.9 3.87 h 67.82 c 2.13 0 3.87 -1.74 3.87 -3.87 v -41.19 l 0.02 0 z m -37.6 -11.69 c -10.8 0 -19.56 8.48 -19.56 18.95 0 10.5 8.8 19 19.6 18.95 10.8 0 19.56 -8.48 19.56 -18.95 -0.04 -10.45 -8.79 -18.95 -19.59 -18.92 z"/>
</symbol>   
<svg class="icon instagram ">
  <use xlink:href="#instagram" />
</svg>
</svg>
