<svg xmlns="http://www.w3.org/2000/svg" xmlns:xlink="http://www.w3.org/1999/xlink" version="1.1" class="iconomizer" >
<symbol id="twitter" viewBox="0 0 90 68">
    <path id="twitter" d="m 79.802993,27.565 c 5.055,-0.417 8.483,-2.715 9.803,-5.833 -1.824,1.12 -7.484,2.341 -10.61,1.178 -0.153,-0.734 -0.324,-1.432 -0.492,-2.062 -2.382,-8.746 -10.537,-15.792 -19.082,-14.941 0.691,-0.279 1.392,-0.539 2.092,-0.772 0.94,-0.337 6.459,-1.235 5.59,-3.183 -0.733,-1.713 -7.475,1.295 -8.744,1.688 1.675,-0.63 4.447,-1.714 4.743,-3.64 -2.567,0.352 -5.087,1.566 -7.034,3.331 0.703,-0.757 1.236,-1.679 1.349,-2.672 -6.848,4.375 -10.848,13.195 -14.085,21.75 -2.542,-2.463 -4.795,-4.403 -6.816,-5.48 -5.67,-3.041 -12.449,-6.213 -23.091,-10.164 -0.327,3.521 1.741,8.203 7.7,11.316 -1.291,-0.173 -3.652,0.213 -5.54,0.665 0.769,4.034 3.28,7.357 10.079,8.964 -3.107,0.205 -4.713,0.912 -6.168,2.436 1.415,2.805 4.868,6.107 11.08,5.429 -6.906,2.977 -2.816,8.49 2.804,7.667 C 23.793993,53.144 8.6789926,52.417 -7.3563764e-6,44.135 22.660993,75.014 71.920993,62.397 79.261993,32.654 c 5.499,0.047 8.733,-1.905 10.738,-4.057 -3.169,0.538 -7.761,-0.018 -10.197,-1.032 z" />
</symbol>
   
<svg class="icon twitter ">
  <use xlink:href="#twitter" />
</svg>
</svg>
