<svg xmlns="http://www.w3.org/2000/svg" xmlns:xlink="http://www.w3.org/1999/xlink" version="1.1" class="iconomizer" >
<symbol id="wifi" viewBox="0 0 98 75.5">
    <path class="wifi" d="m 65.21 59.2 c -1.6 0 -3.3 -0.7 -4.4 -2 -3 -3.4 -7.4 -5.3 -11.9 -5.3 -4.6 0 -8.8 1.9 -11.9 5.2 -2.2 2.5 -6 2.6 -8.5 0.4 -2.5 -2.2 -2.6 -6 -0.4 -8.5 5.3 -5.7 12.9 -9 20.8 -9 7.9 0 15.5 3.4 20.8 9.2 2.2 2.5 2 6.2 -0.4 8.5 -1.1 1 -2.6 1.6 -4 1.6 z"/>
    <path class="wifi" d="m 78.51 44.2 c -1.5 0 -3.1 -0.6 -4.2 -1.7 -6.8 -6.8 -15.8 -10.5 -25.4 -10.5 -9.6 0 -18.6 3.7 -25.4 10.5 -2.3 2.3 -6.1 2.3 -8.5 0 -2.3 -2.3 -2.3 -6.1 0 -8.5 9 -9 21.1 -13.9 33.9 -13.9 12.8 0 24.8 5 33.9 14 2.4 2.3 2.4 6.1 0 8.5 -1.2 1.2 -2.7 1.8 -4.3 1.8 z"/>
    <path class="wifi" d="m 91.81 29.2 c -1.5 0 -3 -0.6 -4.2 -1.7 -10.5 -10 -24.2 -15.6 -38.8 -15.6 -14.5 0 -28.3 5.5 -38.8 15.6 -2.2 2.3 -6 2.2 -8.3 -0.1 -2.3 -2.4 -2.3 -6.2 0.1 -8.5 C 14.51 6.7 31.21 0 48.91 0 c 17.6 0 34.3 6.7 47.1 18.9 2.4 2.3 2.5 6.1 0.2 8.5 -1.2 1.2 -2.8 1.8 -4.3 1.8 z"/>
    <circle class="wifi" cx="13" cy="20" r="1.8" transform="matrix(4,0,0,4,-3.081342,-12.024)"/>
</symbol>   
<svg class="icon wifi ">
  <use xlink:href="#wifi" />
</svg>
</svg>
