<svg xmlns="http://www.w3.org/2000/svg" xmlns:xlink="http://www.w3.org/1999/xlink" version="1.1" class="iconomizer" >
<symbol id="youtube" viewBox="0 0 75 90">
    <path d="M 63.44 65.83 H 58.5 l 0.02 -2.87 c 0 -1.27 1.05 -2.32 2.33 -2.32 h 0.32 c 1.28 0 2.33 1.04 2.33 2.32 L 63.44 65.83 z M 44.91 59.68 c -1.25 0 -2.28 0.84 -2.28 1.87 V 75.51 c 0 1.03 1.02 1.87 2.28 1.87 1.26 0 2.28 -0.84 2.28 -1.87 V 61.56 c 0 -1.03 -1.03 -1.87 -2.28 -1.87 z M 75 51.88 V 78.42 C 75 84.79 69.48 90 62.73 90 H 12.27 C 5.52 90 0 84.79 0 78.42 V 51.88 C 0 45.51 5.52 40.3 12.27 40.3 H 62.73 c 6.75 0 12.27 5.21 12.27 11.58 z M 15.64 81.31 15.63 53.34 21.89 53.35 V 49.2 L 5.21 49.18 v 4.07 l 5.21 0.01 v 28.04 h 5.22 z M 34.39 57.51 H 29.17 V 72.44 c 0 2.16 0.13 3.24 -0.01 3.62 -0.42 1.16 -2.33 2.39 -3.07 0.12 -0.13 -0.4 -0.01 -1.59 -0.02 -3.64 L 26.05 57.51 h -5.19 l 0.02 14.8 c 0 2.27 -0.05 3.96 0.02 4.73 0.13 1.36 0.08 2.94 1.34 3.84 2.35 1.69 6.84 -0.25 7.97 -2.67 l -0.01 3.08 4.19 0.01 V 57.51 z M 51.07 74.61 51.06 62.18 c -0 -4.74 -3.55 -7.57 -8.36 -3.74 l 0.02 -9.24 -5.21 0.01 -0.03 31.89 4.28 -0.06 0.39 -1.99 c 5.48 5.02 8.92 1.58 8.91 -4.44 z M 67.39 72.96 63.48 72.98 c -0 0.15 -0.01 0.33 -0.01 0.53 v 2.18 c 0 1.17 -0.96 2.12 -2.14 2.12 h -0.77 c -1.17 0 -2.14 -0.95 -2.14 -2.12 v -0.24 -2.4 -3.1 h 8.95 v -3.37 c 0 -2.46 -0.06 -4.92 -0.27 -6.33 -0.64 -4.45 -6.89 -5.16 -10.05 -2.88 -0.99 0.71 -1.75 1.67 -2.19 2.95 -0.45 1.28 -0.67 3.03 -0.67 5.25 v 7.41 C 54.21 85.3 69.18 83.56 67.39 72.96 z M 47.33 32.73 c 0.27 0.65 0.69 1.18 1.25 1.58 0.56 0.39 1.28 0.59 2.13 0.59 0.75 0 1.42 -0.2 2 -0.62 0.58 -0.42 1.06 -1.04 1.46 -1.87 l -0.1 2.05 h 5.81 V 9.74 H 55.32 v 19.24 c 0 1.04 -0.86 1.9 -1.91 1.9 -1.04 0 -1.9 -0.85 -1.9 -1.9 V 9.74 h -4.78 v 16.67 c 0 2.12 0.04 3.54 0.1 4.26 0.07 0.71 0.23 1.4 0.5 2.06 z M 29.72 18.77 c 0 -2.37 0.2 -4.23 0.59 -5.56 0.4 -1.33 1.11 -2.4 2.14 -3.21 1.03 -0.81 2.34 -1.22 3.94 -1.22 1.34 0 2.5 0.26 3.46 0.78 0.97 0.52 1.71 1.2 2.23 2.03 0.53 0.84 0.89 1.7 1.08 2.57 0.2 0.89 0.29 2.23 0.29 4.05 v 6.25 c 0 2.29 -0.09 3.98 -0.27 5.05 -0.18 1.07 -0.56 2.07 -1.15 3 -0.58 0.92 -1.33 1.61 -2.24 2.06 -0.92 0.45 -1.97 0.66 -3.15 0.66 -1.32 0 -2.44 -0.18 -3.36 -0.56 -0.92 -0.38 -1.64 -0.95 -2.14 -1.71 -0.51 -0.76 -0.87 -1.69 -1.09 -2.77 -0.22 -1.08 -0.32 -2.71 -0.32 -4.87 V 18.77 z m 4.55 9.82 c 0 1.4 1.04 2.54 2.31 2.54 1.27 0 2.31 -1.14 2.31 -2.54 V 15.43 c 0 -1.4 -1.04 -2.54 -2.31 -2.54 -1.27 0 -2.31 1.14 -2.31 2.54 v 13.16 z m -16.09 6.64 h 5.48 l 0.01 -18.96 6.48 -16.24 H 24.15 L 20.71 12.1 17.21 0 h -5.94 l 6.89 16.28 0.01 18.95 z"/>
</symbol>
   
<svg class="icon youtube ">
  <use xlink:href="#youtube" />
</svg>
</svg>
